<svg width="35" height="35" xmlns="http://www.w3.org/2000/svg" xmlns:xlink="http://www.w3.org/1999/xlink"><defs><path d="M22.58 31.379c.37.113.68.361.873.713.194.344.233.742.125 1.122a1.474 1.474 0 0 1-1.106 1.022c-.018.007-.034.021-.043.026-1.573.486-3.23.738-4.935.738h-.005c-1.669 0-3.329-.24-4.936-.709a17.383 17.383 0 0 1-8.307-5.372C1.24 25.411-.182 21.305.019 16.713c.17-3.979 1.566-7.545 4.133-10.596l-1.63-.047c-.027.003-.05.01-.075.01-.092 0-.177-.016-.27-.029-.015 0-.03-.006-.047-.012-.036-.007-.07-.007-.104-.016a1.49 1.49 0 0 1-.888-.722 1.466 1.466 0 0 1-.12-1.134 1.49 1.49 0 0 1 1.423-1.076h.075c.642 0 4.015.016 5.264.047H7.836c.01 0 .01.002.014.004.098.007.19.025.286.051.647.193 1.06.802 1.049 1.448v.002c0 .04 0 .076-.003.115-.014.594-.027 1.188-.043 1.79l-.17 3.566-.007.06a.246.246 0 0 1-.027.12c-.01.038-.01.077-.021.111a1.485 1.485 0 0 1-1.418 1.068 1.471 1.471 0 0 1-1.464-1.34c-.006-.054-.013-.108-.013-.162l.03-1.35c-1.749 2.256-2.74 4.829-2.95 7.655-.339 4.625 1.201 8.599 4.583 11.813 2.068 1.965 4.597 3.204 7.514 3.68 1.75.282 3.542.24 5.295-.137l.16-.035c1.162-.293 1.424-.337 1.714-.263.073.011.139.025.216.045zm12.4-13.096c-.172 3.98-1.559 7.546-4.138 10.601l1.623.038c.032 0 .057-.005.089-.005.09 0 .183.01.27.027a.13.13 0 0 0 .04.012.49.49 0 0 1 .104.02 1.492 1.492 0 0 1 1.018 1.853 1.504 1.504 0 0 1-1.432 1.08c-.032 0-.057-.01-.089-.01-.684-.006-3.849-.016-5.164-.038H27.198s-.01-.004-.015-.004h-.02c-.02 0-.023-.005-.039-.006a1.454 1.454 0 0 1-1.135-.758 1.52 1.52 0 0 1-.174-.857c.014-.598.031-1.192.043-1.784l.18-3.63c0-.048.005-.089.023-.122.014-.038.014-.074.03-.114a1.469 1.469 0 0 1 1.407-1.062c.143 0 .283.02.417.056.385.113.693.371.885.715.091.18.145.374.17.578.004.05.012.103.012.155l-.03 1.35c1.752-2.258 2.743-4.827 2.95-7.656.336-4.628-1.198-8.608-4.58-11.816-2.072-1.967-4.597-3.205-7.52-3.68a14.349 14.349 0 0 0-5.295.141c-.018 0-.052.01-.104.023l-.054.01c-1.156.29-1.428.338-1.716.26a1.481 1.481 0 0 1-1.208-1.881A1.48 1.48 0 0 1 12.53.76c.015-.01.026-.017.043-.026 3.102-.971 6.636-.974 9.866-.028l.052.018a17.361 17.361 0 0 1 8.264 5.358c3.007 3.499 4.433 7.606 4.226 12.202z" id="a"/></defs><use fill="#F5C94B" xlink:href="#a" fill-rule="evenodd"/></svg>