<?xml version="1.0" encoding="UTF-8" standalone="no"?>
<svg
   width="32"
   height="32"
   viewBox="0 0 32 32"
   fill="none"
   version="1.1"
   id="svg7"
   xmlns="http://www.w3.org/2000/svg"
   xmlns:svg="http://www.w3.org/2000/svg">
  <defs
     id="defs7" />
  <rect
     y="0"
     width="32"
     height="32"
     rx="16"
     fill="#521c74"
     id="rect1"
     x="0" />
  <path
     fill-rule="evenodd"
     clip-rule="evenodd"
     d="m 16,8.7304 c -4.0149,0 -7.26962,3.2547 -7.26962,7.2696 0,4.0149 3.25472,7.2696 7.26962,7.2696 1.3301,0 2.4962,-0.2424 3.1215,-0.673 l 1.892,2.0575 C 19.5384,25.5102 17.8243,26 16,26 10.4772,26 6,21.5228 6,16 6,10.4772 10.4772,6 16,6 c 5.5228,0 10,4.4772 10,10 0,2.0071 -0.5686,3.8497 -1.5889,5.4177 L 23.3244,20.3414 22.412,19.429 C 22.9592,18.4083 23.2696,17.2419 23.2696,16 23.2696,11.9851 20.0149,8.7304 16,8.7304 Z"
     fill="#67bfd3"
     id="path1" />
  <path
     fill-rule="evenodd"
     clip-rule="evenodd"
     d="m 25.4465,25.548 c -0.5332,0.5332 -1.3976,0.5332 -1.9307,0 l -5.5641,-5.5641 c -0.5332,-0.5331 -0.5332,-1.3975 0,-1.9307 v 0 c 0.5331,-0.5331 1.3975,-0.5331 1.9306,0 l 5.5642,5.5642 c 0.5331,0.5331 0.5331,1.3975 0,1.9306 z"
     fill="#e42656"
     id="path2" />
</svg>
