<?xml version="1.0" encoding="UTF-8" standalone="no"?>
<svg version="1.1" width="64" height="64" viewBox="0 0 32 32" preserveAspectRatio="none"
   xmlns="http://www.w3.org/2000/svg" xmlns:svg="http://www.w3.org/2000/svg">
   <path
      d="m 26.05878,3.5150116 c 0.43445,0.36255 0.84834,0.74076 1.25734,1.13162 0.13858,0.12447 0.13858,0.12447 0.27996,0.25146 2.46553,2.3 4.23191,6.1228704 4.39249,9.4759704 0.006,0.5034 0.0108,1.00668 0.0112,1.51011 9e-5,0.0908 1.7e-4,0.18152 2.6e-4,0.27504 -0.002,1.31221 -0.0434,2.55516 -0.40889,3.82705 -0.0428,0.15414 -0.0856,0.30828 -0.12967,0.46709 -1.13226,3.70662 -3.55059,6.85631 -6.78574,8.96301 -0.1167,0.0785 -0.2334,0.1569 -0.35363,0.23772 -3.46242,2.18369 -8.04716,2.77411 -12.01583,1.87955 -2.91802,-0.73683 -5.4528,-2.18146 -7.62236,-4.25476 -0.0924,-0.083 -0.18478,-0.16597 -0.27996,-0.25146 -2.46553,-2.3 -4.23191,-6.12287 -4.39249,-9.47597 -0.006,-0.5034 -0.0108,-1.00668 -0.0112,-1.51011 -9e-5,-0.0908 -1.7e-4,-0.18152 -2.6e-4,-0.27504 0.002,-1.31221 0.0434,-2.55516 0.40889,-3.82705 0.0428,-0.15414 0.0856,-0.30828 0.12967,-0.46709 1.13226,-3.7066204 3.55059,-6.8563104 6.78574,-8.9630204 0.1167,-0.0784 0.2334,-0.15689 0.35363,-0.23771 5.60732,-3.53644 13.27375,-2.80772996 18.38085,1.24359 z"
      fill="#a0d3a4" id="path1" style="stroke-width:0.125735" />
   <path
      d="m 10.34194,18.100242 c 0.24696,0.27759 0.45572,0.54599 0.66796,0.84871 0.1332,0.18374 0.26647,0.36743 0.3998,0.55107 0.0708,0.0986 0.14158,0.19717 0.21451,0.29874 0.4013,0.55486 0.81346,1.10156 1.22456,1.64917 0.0787,0.10563 0.15748,0.21127 0.23861,0.3201 0.32974,0.44107 0.6598,0.87644 1.01923,1.29382 0.25884,0.31925 0.25884,0.31925 0.25884,0.57072 0.094,0.0138 0.18801,0.0276 0.28487,0.0418 0.12383,0.0199 0.24765,0.0399 0.37524,0.0604 0.12253,0.019 0.24506,0.0379 0.37131,0.0575 0.35166,0.0918 0.35166,0.0918 0.60067,0.27947 0.33164,0.2476 0.60946,0.28334 1.0162,0.35461 1.0634,0.21046 2.07738,0.53983 3.10677,0.8759 0.52049,0.16844 1.04417,0.32626 1.56751,0.48557 0.2368,0.0737 0.47271,0.15027 0.70775,0.22937 0.45585,0.15062 0.91535,0.28668 1.37621,0.42091 0.18795,0.055 0.37589,0.11002 0.56384,0.16503 0.0965,0.0282 0.19304,0.0564 0.29248,0.0855 0.50057,0.14643 1.00088,0.29379 1.5012,0.44105 0.18091,0.0532 0.36182,0.10643 0.54273,0.15963 0.1295,0.0381 0.259,0.0762 0.39243,0.11542 -0.43545,0.56078 -0.87052,0.97351 -1.45381,1.37522 -0.0779,0.0541 -0.15574,0.10823 -0.23597,0.16399 -0.23187,0.15937 -0.46517,0.31634 -0.69918,0.47254 -0.118,0.0796 -0.23599,0.15917 -0.35756,0.24116 -3.46726,2.177 -8.0409,2.77119 -12.0119,1.87611 -2.91802,-0.73683 -5.4528,-2.18146 -7.62236,-4.25476 -0.0924,-0.083 -0.18478,-0.16597 -0.27996,-0.25146 -1.71852,-1.60315 -2.9207,-3.80888 -3.61782,-6.03527 2.89745,-0.98167 2.89745,-0.98167 4.0628,-1.31236 1.12707,-0.32 2.23487,-0.69745 3.34465,-1.0724 0.21083,-0.0711 0.21083,-0.0711 0.42592,-0.14369 0.12599,-0.0427 0.25197,-0.0855 0.38178,-0.12954 0.48304,-0.15607 0.82648,-0.23391 1.34069,-0.23391 z"
      fill="#fefefe" id="path2" style="stroke-width:0.125735" />
   <path
      d="m 16.15422,2.7267116 c 0.44109,0.0429 0.66169,0.1993 1.02454,0.45039 0.84411,0.58017 1.64826,0.88559 2.64829,1.05303 0.092,0.0163 0.18396,0.0326 0.27873,0.0494 0.22388,0.0395 0.44799,0.0777 0.67214,0.11567 0.0258,0.0788 0.0515,0.15754 0.0781,0.2387 0.0339,0.10275 0.0677,0.20551 0.10265,0.31139 0.0335,0.10211 0.0671,0.20422 0.10167,0.30942 0.0887,0.2734 0.0887,0.2734 0.22053,0.52357 0.0161,0.36558 0.0239,0.72667 0.0236,1.09232 -10e-6,0.10648 -2e-5,0.21297 -3e-5,0.32268 -0.01,1.07619 -0.0583,2.20999 -0.40075,3.2371804 -0.009,0.17472 -0.0103,0.34983 -0.007,0.52474 0.006,0.59279 0.002,1.18482 -0.006,1.7776 -0.002,0.25457 -8e-5,0.50919 0.005,0.76374 0.037,2.23422 0.037,2.23422 -0.67392,3.00418 -0.45221,0.41802 -0.93871,0.76225 -1.45492,1.09662 -0.0415,0.0415 -0.083,0.083 -0.12573,0.12574 -0.68883,0.0554 -1.3777,0.0719 -2.06848,0.0855 -0.232,0.006 -0.46394,0.0144 -0.69572,0.0258 -1.25339,0.0607 -2.24432,0.0928 -3.21409,-0.7851 -0.23576,-0.23059 -0.46,-0.46844 -0.68565,-0.70923 -0.0957,-0.0614 -0.19146,-0.12277 -0.29009,-0.18602 -0.21285,-0.19118 -0.21285,-0.19118 -0.2775,-0.53081 -10e-4,-0.13558 -0.002,-0.27116 -0.003,-0.41085 -0.004,-0.22656 -0.004,-0.22656 -0.008,-0.45769 -0.001,-0.24218 -0.001,-0.24218 -0.003,-0.48925 -0.007,-0.33432 -0.0152,-0.66863 -0.0236,-1.00293 -0.004,-0.16293 -0.007,-0.32586 -0.0113,-0.49373 -0.0458,-1.68721 -0.30953,-3.1685604 -0.85466,-4.7713504 -0.0389,-0.11607 -0.0778,-0.23214 -0.11782,-0.35173 -0.0359,-0.10265 -0.0719,-0.20531 -0.10888,-0.31108 -0.0914,-0.43681 -0.0335,-0.76474 0.19447,-1.14859 0.0533,-0.0657 0.10657,-0.1313 0.16146,-0.19894 0.0592,-0.074 0.11832,-0.14798 0.17927,-0.22421 0.0621,-0.0753 0.12416,-0.15058 0.18811,-0.22814 0.0601,-0.0748 0.12027,-0.1496 0.18222,-0.22667 0.12105,-0.15008 0.24374,-0.29886 0.368,-0.4463 0.19746,-0.2374 0.19746,-0.2374 0.42423,-0.61385 0.503,-0.60174 1.38236,-0.70732 2.10606,-0.89782 0.31113,-0.0857 0.6222,-0.17162 0.93318,-0.25786 0.13757,-0.0367 0.27513,-0.0734 0.41687,-0.11115 0.31497,-0.0943 0.40343,-0.21575 0.72162,-0.25427 z"
      fill="#fdfcfb" id="path3" style="stroke-width:0.125735" />
   <path
      d="m 16.88014,5.5267716 c 0.14673,0.0248 0.14673,0.0248 0.29641,0.05 1.884,0.34128 1.884,0.34128 2.35925,0.88217 0.20437,0.50755 0.23624,0.90976 0.23624,1.45676 -0.99582,0 -1.99164,0 -3.01763,0 0.37147,0.87435 0.37147,0.87435 0.8255,0.9916 0.11852,6.6e-4 0.23704,10e-4 0.35916,0.002 0.12885,0.003 0.2577,0.006 0.39046,0.009 0.13372,-10e-4 0.26743,-0.003 0.4052,-0.004 0.13566,0.002 0.27132,0.004 0.41109,0.006 0.33464,0.004 0.66879,0.005 1.00343,0.002 0.50714,0.99399 0.29582,1.7030904 -0.0393,2.7425804 -0.0277,0.0873 -0.0553,0.17456 -0.0838,0.26449 -0.22114,0.6871 -0.47164,1.3591 -0.75702,2.02231 -0.12447,0 -0.24895,0 -0.3772,0 -0.0261,-0.14992 -0.0522,-0.29984 -0.0791,-0.45431 -0.0389,-0.19699 -0.0781,-0.39394 -0.11738,-0.59086 -0.0166,-0.0988 -0.0332,-0.19757 -0.0503,-0.29935 -0.105,-0.5437 -0.105,-0.5437 -0.45622,-0.94651 -0.5605,-0.25477 -0.96987,-0.22443 -1.56021,-0.0979 -0.79743,0.1539 -0.79743,0.1539 -1.24949,0 -0.63822,-0.20839 -1.25503,-0.0606 -1.89387,0.12574 0.008,0.21005 0.008,0.21005 0.0157,0.42435 0.002,0.6317 -0.12641,1.22552 -0.26718,1.83887 -0.16597,-0.0415 -0.33194,-0.083 -0.50294,-0.12573 -0.50294,-1.76029 -0.50294,-1.76029 -0.63211,-2.22688 -0.0954,-0.32255 -0.20079,-0.61718 -0.33448,-0.92435 -0.17735,-0.46077 -0.17115,-0.7660004 -0.0393,-1.2494904 0.0422,-0.16757 0.0842,-0.3352 0.12573,-0.50293 0.0888,8e-4 0.17756,0.002 0.26903,0.002 0.40292,10e-4 0.80548,-0.005 1.20836,-0.0103 0.20957,0.002 0.20957,0.002 0.42337,0.004 0.13453,-0.003 0.26905,-0.006 0.40766,-0.009 0.12378,-6.6e-4 0.24757,-0.001 0.37511,-0.002 0.46525,-0.11396 0.46525,-0.11396 0.83705,-0.9916 -1.07881,0 -2.15761,0 -3.26911,0 0.0415,-0.33194 0.083,-0.66388 0.12574,-1.00588 0.48981,-0.20439 0.97966,-0.40868 1.46952,-0.61296 0.13866,-0.0579 0.27732,-0.11572 0.42018,-0.17534 0.20118,-0.0839 0.20118,-0.0839 0.40643,-0.16944 0.12313,-0.0514 0.24626,-0.10272 0.37312,-0.15564 0.11497,-0.0475 0.22993,-0.095 0.34838,-0.14397 0.16351,-0.0725 0.16351,-0.0725 0.33033,-0.14645 0.44787,-0.15765 0.84959,-0.0633 1.30422,0.0207 z"
      fill="#e7bb8f" id="path4" style="stroke-width:0.125735" />
   <path
      d="m 11.85075,16.339952 c 0.50294,0.25147 0.50294,0.25147 0.73897,0.49109 0.77426,0.78235 1.46685,0.89363 2.52058,0.91541 0.2228,4.4e-4 0.44562,-9.9e-4 0.66841,-0.004 0.33855,-0.003 0.67536,0.005 1.01376,0.0147 1.35204,0.016 1.35204,0.016 2.50222,-0.6196 0.25629,-0.25389 0.49015,-0.52703 0.72882,-0.79738 0.083,0 0.16597,0 0.25147,0 0,0.41493 0,0.82985 0,1.25735 0.33194,0.0415 0.66388,0.083 1.00588,0.12574 -0.5085,0.70089 -1.05097,1.3629 -1.61254,2.02111 -0.43782,0.51395 -0.86322,1.03628 -1.2828,1.56527 -0.27643,0.34705 -0.55648,0.69095 -0.83741,1.03437 -0.0937,0.11475 -0.18737,0.2295 -0.28389,0.34773 -0.21063,0.25469 -0.42564,0.50392 -0.6434,0.75245 -0.28213,0.29774 -0.28213,0.29774 -0.24362,0.69154 0.16597,0.083 0.33194,0.16597 0.50294,0.25147 -0.56868,0.0474 -0.56868,0.0474 -0.86246,-0.18468 -0.3168,-0.22661 -0.5149,-0.23509 -0.89782,-0.27897 -1.04549,-0.26311 -1.51261,-1.19685 -2.08285,-2.04037 -0.26286,-0.38202 -0.54658,-0.74607 -0.83263,-1.11086 -0.10016,-0.13015 -0.20033,-0.2603 -0.30353,-0.39439 -0.15424,-0.20021 -0.30851,-0.40039 -0.46352,-0.6 -0.15896,-0.20495 -0.31686,-0.41068 -0.47458,-0.61658 -0.0922,-0.11946 -0.18444,-0.23891 -0.27946,-0.36198 -0.19451,-0.29021 -0.28921,-0.48369 -0.34135,-0.82464 0.58831,-0.27686 0.83301,-0.37721 1.50881,-0.37721 0,-0.41492 0,-0.82985 0,-1.25735 z"
      fill="#e7bb8e" id="path5" style="stroke-width:0.125735" />
   <path
      d="m 27.56759,19.231852 c 0.0622,0.12448 0.0622,0.12448 0.12574,0.25147 0.18924,0.0125 0.3791,0.0159 0.56875,0.0152 0.84301,0.0683 1.22837,0.51909 1.77306,1.12424 0.0903,0.0954 0.18055,0.19077 0.27357,0.28905 0.22071,0.23395 0.43834,0.47011 0.65372,0.70897 -0.22667,0.74889 -0.49864,1.42745 -0.888,2.10606 -0.0489,0.0859 -0.0979,0.1718 -0.1483,0.26031 -0.50474,0.86464 -1.08707,1.64563 -1.72986,2.41155 -0.0869,0.10859 -0.17375,0.21719 -0.26326,0.32907 -0.56009,0.64233 -0.56009,0.64233 -1.00784,0.72691 -0.65159,-0.0439 -1.25709,-0.30553 -1.86097,-0.53929 -0.59626,-0.21408 -1.20699,-0.36457 -1.81972,-0.52307 -0.57536,-0.15099 -1.14415,-0.32014 -1.71215,-0.49656 0.0878,-0.0639 0.17569,-0.12772 0.2662,-0.19351 0.43764,-0.37359 0.77612,-0.78715 1.1326,-1.23672 0.10733,-0.13372 0.10733,-0.13372 0.21684,-0.27013 0.50598,-0.63177 1.006,-1.26825 1.50443,-1.90598 0.46543,-0.59447 0.9385,-1.18256 1.41424,-1.76882 0.0705,-0.087 0.14101,-0.17407 0.21365,-0.26374 0.0658,-0.0809 0.13161,-0.16176 0.1994,-0.24509 0.0875,-0.10764 0.0875,-0.10764 0.17685,-0.21746 0.29162,-0.34493 0.47082,-0.47444 0.91105,-0.56249 z"
      fill="#e7ba8d" id="path6" style="stroke-width:0.125735" />
   <path
      d="m 16.15422,2.7267116 c 0.44109,0.0429 0.66169,0.1993 1.02454,0.45039 0.84411,0.58017 1.64826,0.88559 2.64829,1.05303 0.092,0.0163 0.18396,0.0326 0.27873,0.0494 0.22388,0.0395 0.44799,0.0777 0.67214,0.11567 0.0258,0.0788 0.0515,0.15754 0.0781,0.2387 0.0339,0.10275 0.0677,0.20551 0.10265,0.31139 0.0335,0.10211 0.0671,0.20422 0.10167,0.30942 0.0887,0.2734 0.0887,0.2734 0.22053,0.52357 0.0161,0.36558 0.0239,0.72667 0.0236,1.09232 -10e-5,0.10648 -2e-4,0.21297 -3e-4,0.32268 -0.0238,2.48353 -0.0238,2.48353 -0.52621,3.2371804 -0.25147,-0.12573 -0.25147,-0.12573 -0.35854,-0.4405604 -0.0321,-0.12691 -0.0642,-0.25382 -0.0973,-0.38457 -0.0327,-0.12723 -0.0655,-0.25447 -0.0992,-0.38556 -0.0243,-0.0984 -0.0486,-0.19676 -0.0737,-0.29812 -0.085,0.004 -0.16995,0.008 -0.25749,0.012 -0.38563,0.0157 -0.7712,0.0255 -1.15703,0.0352 -0.13372,0.006 -0.26743,0.0126 -0.4052,0.0192 -0.37172,0.007 -0.70718,0.005 -1.07218,-0.0663 -0.31867,-0.33779 -0.50294,-0.53347 -0.50294,-1.00588 0.99582,0 1.99164,0 3.01763,0 -0.12448,-0.36565 -0.12448,-0.36565 -0.25147,-0.73869 -0.25147,-0.7387 -0.25147,-0.7387 -0.25147,-1.0216 -0.12464,-0.0154 -0.24928,-0.0308 -0.37769,-0.0467 -0.51219,-0.0732 -1.00253,-0.20011 -1.50047,-0.3384 -0.086,-0.0234 -0.17197,-0.0468 -0.26056,-0.071 -0.20927,-0.0571 -0.41838,-0.11479 -0.62744,-0.17264 0.0622,-0.18672 0.0622,-0.18672 0.12573,-0.37721 0,-0.0415 0,-0.083 0,-0.12573 -0.10227,0.0229 -0.20454,0.0457 -0.30991,0.0693 -0.66922,0.14679 -1.33635,0.29152 -2.01225,0.40373 -0.0935,0.0156 -0.18706,0.0312 -0.28342,0.0472 -0.18114,0.0296 -0.36244,0.0584 -0.54389,0.086 -0.58944,0.0967 -1.08026,0.27927 -1.62845,0.52538 -0.24729,0.076 -0.49612,0.14725 -0.74655,0.21218 -0.12042,0.0316 -0.24085,0.0632 -0.36492,0.0958 -0.0896,0.0229 -0.17926,0.0457 -0.27161,0.0693 0.17917,-0.53172 0.44056,-0.89325 0.80156,-1.32022 0.0969,-0.1154 0.19385,-0.2308 0.29371,-0.3497 0.14247,-0.16921 0.14247,-0.16921 0.28781,-0.34184 0.0727,-0.10507 0.14537,-0.21014 0.22025,-0.31839 0.34223,-0.37564 0.58325,-0.45385 1.07001,-0.58729 0.15098,-0.0428 0.30195,-0.0856 0.45751,-0.12967 0.15713,-0.0421 0.31427,-0.0843 0.47617,-0.1277 0.31229,-0.0868 0.6245,-0.17389 0.93662,-0.26129 0.13837,-0.0375 0.27673,-0.075 0.41929,-0.11358 0.31535,-0.0958 0.40505,-0.21769 0.72362,-0.25626 z"
      fill="#fbfcfb" id="path7" style="stroke-width:0.125735" />
   <path
      d="m 21.53233,17.345832 c 0.23728,0.0545 0.23728,0.0545 0.47936,0.11002 0.67501,0.15048 1.35428,0.27326 2.03533,0.39292 0.0622,0.31119 0.0622,0.31119 0.12574,0.62867 -0.0909,0.0258 -0.18186,0.0515 -0.27554,0.0781 -0.45223,0.22202 -0.68346,0.53899 -0.97395,0.93564 -0.12138,0.16015 -0.24303,0.3201 -0.36493,0.47986 -0.0642,0.0845 -0.12832,0.16892 -0.19443,0.25595 -0.35019,0.45254 -0.71715,0.89109 -1.08305,1.33095 -0.62195,0.75001 -1.23237,1.50746 -1.82782,2.2787 -0.57662,0.74341 -0.57662,0.74341 -0.81261,0.92754 -0.74536,-0.0262 -1.59326,-0.16469 -2.26323,-0.50294 -0.0954,-0.23615 -0.0954,-0.23615 -0.12573,-0.50294 0.21022,-0.29078 0.41755,-0.54011 0.66011,-0.80156 0.14095,-0.1577 0.28157,-0.31569 0.4219,-0.47396 0.10755,-0.12074 0.10755,-0.12074 0.21727,-0.24392 0.31764,-0.3651 0.6136,-0.74565 0.90894,-1.12885 0.508,-0.65541 1.03292,-1.29286 1.57162,-1.92322 0.51428,-0.60264 1.01074,-1.21862 1.50102,-1.84096 z"
      fill="#9a6146" id="path8" style="stroke-width:0.125735" />
   <path
      d="m 16.12573,5.6525016 c 0.0415,1.99164 0.083,3.98328 0.12574,6.0352704 -0.88014,-0.12574 -0.88014,-0.12574 -1.15519,-0.17436 -0.61049,-0.10131 -1.02788,-0.0322 -1.61097,0.17436 0.008,0.21005 0.008,0.21005 0.0157,0.42435 0.002,0.6317 -0.12641,1.22552 -0.26718,1.83887 -0.16597,-0.0415 -0.33194,-0.083 -0.50294,-0.12573 -0.50294,-1.76029 -0.50294,-1.76029 -0.63211,-2.22688 -0.0954,-0.32255 -0.20079,-0.61718 -0.33448,-0.92435 -0.17735,-0.46077 -0.17115,-0.7660004 -0.0393,-1.2494904 0.0422,-0.16757 0.0842,-0.3352 0.12573,-0.50293 0.0888,8e-4 0.17756,0.002 0.26903,0.002 0.40292,0.001 0.80548,-0.005 1.20836,-0.0103 0.20957,0.002 0.20957,0.002 0.42337,0.004 0.13453,-0.003 0.26905,-0.006 0.40766,-0.009 0.12378,-6.6e-4 0.24757,-10e-4 0.37511,-0.002 0.46525,-0.11396 0.46525,-0.11396 0.83705,-0.9916 -1.07881,0 -2.15761,0 -3.26911,0 0.0415,-0.33194 0.083,-0.66388 0.12574,-1.00588 0.4835,-0.21216 0.96848,-0.42072 1.45381,-0.62867 0.13655,-0.06 0.2731,-0.11994 0.41379,-0.18173 0.13331,-0.0567 0.26662,-0.11346 0.40397,-0.1719 0.18272,-0.079 0.18272,-0.079 0.36913,-0.15963 0.37693,-0.11542 0.37693,-0.11542 1.25707,-0.11542 z"
      fill="#deae7e" id="path9" style="stroke-width:0.125735" />
   <path
      d="m 25.40653,18.178822 c 0.17722,0.0521 0.35257,0.1107 0.52651,0.17289 0.27212,0.0668 0.54456,0.1322 0.81728,0.19646 0.23066,0.0597 0.46123,0.11971 0.69154,0.18074 0.0622,0.3112 0.0622,0.3112 0.12573,0.62868 -0.0903,0.0264 -0.18055,0.0528 -0.27357,0.08 -0.44743,0.21599 -0.70266,0.52281 -1.00735,0.90225 -0.0602,0.073 -0.12032,0.14595 -0.18231,0.22114 -0.44694,0.54598 -0.87753,1.10433 -1.30385,1.66654 -0.66351,0.87103 -1.36406,1.71307 -2.06772,2.55184 -0.12597,0.15294 -0.24899,0.30839 -0.3683,0.46659 -0.38929,0.50822 -0.38929,0.50822 -0.71969,0.58791 -0.12958,-0.0238 -0.12958,-0.0238 -0.26178,-0.0481 -0.0963,-0.0177 -0.19255,-0.0353 -0.29175,-0.0535 -0.54255,-0.15222 -1.05713,-0.36034 -1.5707,-0.59086 0.30596,-0.54679 0.67452,-1.01711 1.06875,-1.50095 0.13562,-0.16792 0.27118,-0.3359 0.40667,-0.50393 0.0685,-0.0848 0.13696,-0.16961 0.20751,-0.25699 0.31189,-0.38825 0.61912,-0.7801 0.92607,-1.17226 0.97355,-1.24181 0.97355,-1.24181 1.41942,-1.78779 0.18126,-0.22819 0.35512,-0.4623 0.52455,-0.6994 0.72626,-0.98156 0.72626,-0.98156 1.33299,-1.04124 z"
      fill="#9a6146" id="path10" style="stroke-width:0.125735" />
   <path
      d="m 17.00588,5.0238316 c -0.38584,0.32564 -0.71681,0.45961 -1.20234,0.58938 -0.87586,0.25438 -1.70004,0.59994 -2.53535,0.96447 -0.14805,0.0643 -0.14805,0.0643 -0.29908,0.12982 -0.0884,0.0389 -0.17673,0.0779 -0.26777,0.11799 -0.22191,0.0844 -0.22191,0.0844 -0.47338,0.0844 -0.0415,0.33194 -0.083,0.66388 -0.12574,1.00588 1.07881,0 2.15761,0 3.26911,0 -0.11718,0.46872 -0.16984,0.67455 -0.50294,1.00588 -0.31983,0.0571 -0.31983,0.0571 -0.69695,0.0491 -0.13493,-0.002 -0.26986,-0.003 -0.40888,-0.005 -0.14077,-0.004 -0.28153,-0.008 -0.42656,-0.0128 -0.14223,-0.002 -0.28445,-0.005 -0.43099,-0.007 -0.35152,-0.006 -0.70284,-0.0142 -1.05426,-0.0245 -0.21524,2.0016304 -0.39615,4.3438704 0.25147,6.2867304 0.33725,0.16397 0.66493,0.30571 1.01374,0.44007 0.093,0.0371 0.18591,0.0742 0.28168,0.11248 0.27995,0.1112 0.56084,0.21967 0.84207,0.32759 0.13709,0.0537 0.13709,0.0537 0.27695,0.10846 0.54814,0.21167 1.02855,0.33401 1.60907,0.39448 0,0.37344 0,0.74687 0,1.13162 -2.37614,0.23453 -2.37614,0.23453 -3.25157,-0.47627 -0.31283,-0.29093 -0.60538,-0.59513 -0.89767,-0.90682 -0.0881,-0.0538 -0.1763,-0.10752 -0.26713,-0.1629 -0.23581,-0.2143 -0.23581,-0.2143 -0.30046,-0.55393 -10e-4,-0.13558 -0.002,-0.27116 -0.003,-0.41085 -0.004,-0.22656 -0.004,-0.22656 -0.008,-0.45769 -10e-4,-0.24218 -10e-4,-0.24218 -0.003,-0.48925 -0.007,-0.33432 -0.0152,-0.66863 -0.0236,-1.00293 -0.004,-0.16293 -0.007,-0.32586 -0.0113,-0.49373 -0.0458,-1.68721 -0.30953,-3.1685604 -0.85466,-4.7713504 -0.0389,-0.11607 -0.0778,-0.23214 -0.11782,-0.35173 -0.0359,-0.10265 -0.0719,-0.20531 -0.10888,-0.31108 -0.0726,-0.3471 -0.0273,-0.58766 0.0632,-0.9276 0.10875,-0.0157 0.21751,-0.0314 0.32956,-0.0476 0.41382,-0.0761 0.78939,-0.18571 1.18711,-0.3217 0.12594,-0.0426 0.25187,-0.0853 0.38163,-0.12918 0.3552,-0.12066 0.3552,-0.12066 0.64832,-0.26031 0.51689,-0.18161 1.04531,-0.23775 1.58691,-0.30991 0.89504,-0.11658 0.89504,-0.11658 1.76912,-0.33399 0.38408,-0.10609 0.38408,-0.10609 0.76129,0.0196 z"
      fill="#e5e8f0" id="path11" style="stroke-width:0.125735" />
   <path
      d="m 8.58165,20.363462 c 0.083,0 0.16597,0 0.25147,0 0.0322,0.0688 0.0643,0.13759 0.0975,0.20847 0.60031,1.2807 1.20263,2.55798 1.8832,3.79844 0.23786,0.43585 0.45481,0.86957 0.64504,1.32847 0.48203,1.15496 0.48203,1.15496 1.48425,1.85508 0.30745,0.0866 0.6081,0.16013 0.91944,0.22789 0.21622,0.0531 0.43232,0.10665 0.64832,0.16061 0.44869,0.11058 0.89815,0.2153 1.34919,0.31581 0.80313,0.18343 1.58998,0.40642 2.35605,0.7102 0.74425,0.28859 1.53165,0.45137 2.30645,0.63758 0.42106,0.10192 0.84111,0.20778 1.26128,0.31329 0,0.083 0,0.16597 0,0.25147 -0.62178,-0.0527 -1.21176,-0.13716 -1.81824,-0.28437 -1.22962,-0.28895 -2.46841,-0.53348 -3.70623,-0.78437 -0.24419,-0.0496 -0.48837,-0.0992 -0.73255,-0.14882 -0.11919,-0.0242 -0.23837,-0.0484 -0.36117,-0.0733 -0.23509,-0.048 -0.47009,-0.0963 -0.705,-0.14513 -0.50803,-0.10537 -1.01511,-0.20736 -1.52714,-0.29138 -0.23642,-0.0416 -0.23642,-0.0416 -0.47762,-0.084 -0.13388,-0.0212 -0.26775,-0.0423 -0.40569,-0.0641 -0.32514,-0.13629 -0.32514,-0.13629 -0.55537,-0.49806 -0.16516,-0.41882 -0.28201,-0.83813 -0.39844,-1.27278 -0.0916,-0.21453 -0.18844,-0.42691 -0.29077,-0.63654 -0.35657,-0.76601 -0.66199,-1.55096 -0.9722,-2.33653 -0.27265,-0.68717 -0.56528,-1.36023 -0.87894,-2.0298 -0.16555,-0.37934 -0.27462,-0.75653 -0.37279,-1.15814 z"
      fill="#e8ebf3" id="path12" style="stroke-width:0.125735" />
   <path
      d="m 11.85075,16.339952 c 0.50294,0.25147 0.50294,0.25147 0.75392,0.51915 1.16483,1.1611 2.62082,1.00364 4.15956,1.00195 0.24821,-0.003 0.49641,-0.007 0.74459,-0.0123 -0.31703,0.31703 -0.57795,0.36822 -1.00588,0.50294 -0.47422,0.17471 -0.94479,0.35184 -1.41157,0.54567 -0.1436,0.0585 -0.28721,0.11702 -0.43516,0.1773 -0.13534,0.0564 -0.27067,0.11281 -0.41011,0.17092 -0.81311,0.23738 -1.51542,-0.22549 -2.23818,-0.5717 -0.11005,-0.0513 -0.2201,-0.10259 -0.33349,-0.15544 -0.10454,-0.0497 -0.20908,-0.0994 -0.31679,-0.15054 -0.0954,-0.0453 -0.19085,-0.0906 -0.28917,-0.13725 -0.22359,-0.13043 -0.22359,-0.13043 -0.34933,-0.3819 0.43531,-0.25796 0.57761,-0.25147 1.13161,-0.25147 0,-0.41492 0,-0.82985 0,-1.25735 z"
      fill="#cf9c71" id="path13" style="stroke-width:0.125735" />
   <path
      d="m 24.17276,18.225972 c 0.0622,0.18672 0.0622,0.18672 0.12573,0.37721 0.083,0 0.16597,0 0.25147,0 -0.18178,0.39974 -0.40545,0.71406 -0.68368,1.05303 -0.41409,0.50941 -0.82196,1.02282 -1.22592,1.54025 -0.58639,0.74952 -1.18414,1.48931 -1.78812,2.22473 -0.45995,0.56215 -0.89896,1.13678 -1.33167,1.72019 -0.41492,-0.083 -0.82985,-0.16597 -1.25735,-0.25147 0.0861,-0.0619 0.17213,-0.12382 0.26081,-0.18761 0.46923,-0.40221 0.83769,-0.85672 1.22444,-1.33692 0.11765,-0.14452 0.11765,-0.14452 0.23768,-0.29196 0.47073,-0.57908 0.93854,-1.16053 1.40276,-1.74484 0.44315,-0.55394 0.89206,-1.10321 1.34063,-1.65276 0.0673,-0.0827 0.13467,-0.1653 0.20404,-0.25045 0.0636,-0.0776 0.12728,-0.1552 0.19284,-0.23514 0.18022,-0.22139 0.18022,-0.22139 0.37199,-0.52124 0.0566,-0.0632 0.11313,-0.12642 0.17141,-0.19155 0.16597,0 0.33194,0 0.50294,0 0,-0.083 0,-0.16597 0,-0.25147 z"
      fill="#e2b589" id="path14" style="stroke-width:0.125735" />
   <path
      d="m 17.88602,12.442182 c 0,0.41492 0,0.82985 0,1.25734 -0.17894,-0.0415 -0.35787,-0.083 -0.54223,-0.12573 -1.12287,-0.22204 -2.12713,-0.16349 -3.22981,0.12573 0,-0.41492 0,-0.82984 0,-1.25734 1.43908,-0.44442 2.33296,-0.44442 3.77204,0 z"
      fill="#dcae82" id="path15" style="stroke-width:0.125735" />
   <path
      d="m 16.50294,5.4010316 c 0.42949,0.0291 0.85868,0.0596 1.2878,0.0938 0.45514,0.0368 0.45514,0.0368 0.84281,0.0285 0.32858,0.004 0.57777,0.0166 0.88702,0.12917 0.32665,0.34163 0.53769,0.71429 0.75441,1.13162 0.12448,0.18671 0.12448,0.18671 0.25147,0.3772 0.0157,0.40078 0.0157,0.40078 0,0.75441 -0.24895,0 -0.49791,0 -0.75441,0 -0.0843,-0.24608 -0.168,-0.49234 -0.25147,-0.73869 -0.0467,-0.13712 -0.0934,-0.27424 -0.14145,-0.41552 -0.11002,-0.35461 -0.11002,-0.35461 -0.11002,-0.60608 -0.12464,-0.0154 -0.24928,-0.0308 -0.37769,-0.0467 -0.51219,-0.0732 -1.00253,-0.20011 -1.50047,-0.3384 -0.086,-0.0234 -0.17197,-0.0468 -0.26056,-0.071 -0.20927,-0.0571 -0.41838,-0.11479 -0.62744,-0.17264 0,-0.0415 0,-0.083 0,-0.12574 z"
      fill="#e7e8ee" id="path16" style="stroke-width:0.125735" />
   <path
      d="m 11.34782,7.9157316 c 1.32775,0 2.65551,0 4.02351,0 -0.0415,0.16597 -0.083,0.33194 -0.12574,0.50294 -1.28626,0 -2.57253,0 -3.89777,0 0,-0.16597 0,-0.33194 0,-0.50294 z"
      fill="#faf5f0" id="path17" style="stroke-width:0.125735" />
   <path
      d="m 17.00588,8.4186716 c 1.0788,0 2.15761,0 3.2691,0 0,0.16597 0,0.33194 0,0.50294 0.12448,0 0.24896,0 0.3772,0 0,0.29044 0,0.58089 0,0.88014 -0.083,0 -0.16597,0 -0.25146,0 -0.083,-0.29045 -0.16597,-0.5809 -0.25147,-0.88014 -0.95433,0 -1.90866,0 -2.8919,0 -0.083,-0.16597 -0.16597,-0.33194 -0.25147,-0.50294 z"
      fill="#e7e8ef" id="path18" style="stroke-width:0.125735" />
   <path
      d="m 14.99412,8.6701416 c 0.083,0 0.16597,0 0.25147,0 -0.083,0.58089 -0.16597,1.16178 -0.25147,1.7602804 -0.0415,0 -0.083,0 -0.12573,0 0,-0.29045 0,-0.5808904 0,-0.8801404 -0.0986,-0.0182 -0.19709,-0.0363 -0.29862,-0.055 -0.33006,-0.0707 -0.33006,-0.0707 -0.58153,-0.19646 0,0.12448 0,0.24895 0,0.3772 -0.29044,0 -0.58089,0 -0.88014,0 0,-0.12447 0,-0.24895 0,-0.3772 -0.41492,-0.0415 -0.82985,-0.083 -1.25735,-0.12574 0,-0.083 0,-0.16596 0,-0.25146 0.0908,-0.003 0.18151,-0.006 0.27502,-0.01 0.40867,-0.0145 0.8173,-0.03 1.22594,-0.0455 0.14288,-0.005 0.28575,-0.01 0.43295,-0.015 0.20362,-0.008 0.20362,-0.008 0.41134,-0.016 0.12577,-0.005 0.25153,-0.009 0.3811,-0.014 0.28635,0.006 0.28635,0.006 0.41702,-0.15155 z"
      fill="#cb9972" id="path19" style="stroke-width:0.125735" />
   <path
      d="m 21.02939,9.5502816 c 0.20746,0 0.41492,0 0.62867,0 0.12994,1.8696204 0.12994,1.8696204 -0.36934,2.4439704 -0.38507,0.32219 -0.38507,0.32219 -0.5108,0.32219 -0.007,-0.29604 -0.0118,-0.59192 -0.0157,-0.888 -0.003,-0.16483 -0.006,-0.32967 -0.009,-0.4995 0.0253,-0.51339 0.11614,-0.89458 0.27603,-1.3786604 z"
      fill="#e3be92" id="path20" style="stroke-width:0.125735" />
   <path
      d="m 17.88602,12.442182 c 0,0.083 0,0.16597 0,0.25147 -0.16078,-0.005 -0.32157,-0.0104 -0.48722,-0.0157 -0.26954,-0.0147 -0.26954,-0.0147 -0.51866,0.0157 -0.083,0.083 -0.16597,0.16597 -0.25147,0.25147 -0.38179,0.0623 -0.74945,0.0588 -1.13161,0 -0.25933,-0.23576 -0.25933,-0.23576 -0.3772,-0.50294 0,-0.083 0,-0.16597 0,-0.25147 0.96069,-0.32023 1.83284,-0.0368 2.76616,0.25147 z"
      fill="#d1a37d" id="path21" style="stroke-width:0.125735" />
   <path
      d="m 17.00588,8.6701416 c 0.12448,0.0622 0.12448,0.0622 0.25147,0.12573 0.21861,0.0192 0.43787,0.0314 0.65716,0.0398 0.12966,0.005 0.25933,0.0105 0.39292,0.016 0.13582,0.005 0.27164,0.01 0.41158,0.015 0.2052,0.008 0.2052,0.008 0.41453,0.0165 0.33856,0.0134 0.67712,0.0262 1.01571,0.0386 0,0.083 0,0.16597 0,0.25146 -0.56015,0.0622 -0.56015,0.0622 -1.13162,0.12574 0,0.12448 0,0.24895 0,0.3772 -0.29044,0 -0.58089,0 -0.88014,0 0,-0.083 0,-0.16597 0,-0.25147 -0.33194,0 -0.66388,0 -1.00588,0 -0.0415,-0.24895 -0.083,-0.49791 -0.12573,-0.7544 z"
      fill="#ca9973" id="path22" style="stroke-width:0.125735" />
   <path
      d="m 10.59341,9.5502816 c 0.16597,0.0415 0.33194,0.083 0.50294,0.12573 0.26148,0.8498304 0.27804,1.6289704 0.25147,2.5147004 -0.75441,-0.75441 -0.75441,-0.75441 -0.76669,-1.17926 8.4e-4,-0.17534 0.002,-0.35068 0.004,-0.52602 5.7e-4,-0.0894 0.001,-0.17877 0.002,-0.27087 10e-4,-0.2214304 0.004,-0.4428604 0.006,-0.6642804 z"
      fill="#e6bd93" id="path23" style="stroke-width:0.125735" />
   <path
      d="m 17.88602,12.693652 c 0,0.33194 0,0.66388 0,1.00587 -0.66388,-0.12447 -1.32776,-0.24895 -2.01175,-0.3772 0.16597,-0.12448 0.33193,-0.24895 0.50293,-0.3772 0.0726,-0.0726 0.14523,-0.14523 0.22004,-0.22004 0.44513,-0.24729 0.79598,-0.12178 1.28878,-0.0314 z"
      fill="#e8bf95" id="path24" style="stroke-width:0.125735" />
   <path
      d="m 15.63851,11.482472 c 0.55046,0.0855 0.8641,0.0518 1.36737,-0.1719 0.29076,0.0472 0.29076,0.0472 0.50294,0.12573 -0.833,0.3772 -0.833,0.3772 -1.25735,0.3772 0,0.083 0,0.16597 0,0.25147 -0.37475,-0.0523 -0.70978,-0.10742 -1.06089,-0.25147 -0.39672,-0.15481 -0.78079,-0.20187 -1.20234,-0.25147 0.54741,-0.36493 1.03435,-0.18599 1.65027,-0.0796 z"
      fill="#e7e1df" id="path25" style="stroke-width:0.125735" />
   <path
      d="m 5.56402,3.7664816 c 0.083,0.0415 0.16597,0.083 0.25147,0.12574 -0.67191,0.7965 -1.39419,1.53338 -2.13749,2.26322 -0.083,-0.0415 -0.16597,-0.083 -0.25147,-0.12573 0.67191,-0.79651 1.39419,-1.53339 2.13749,-2.26323 z"
      fill="#bee2c2" id="path26" style="stroke-width:0.125735" />
   <path
      d="m 15.37133,12.442182 c 0.49791,0 0.99582,0 1.50881,0 -0.083,0.16597 -0.16597,0.33194 -0.25147,0.50294 -0.37343,0 -0.74686,0 -1.13161,0 -0.0415,-0.16597 -0.083,-0.33194 -0.12573,-0.50294 z"
      fill="#75563e" id="path27" style="stroke-width:0.125735" />
   <path
      d="m 20.11781,29.510672 c 0.10924,0.025 0.21849,0.0499 0.33104,0.0756 0.16289,0.0404 0.16289,0.0404 0.32907,0.0815 0.10081,0.0243 0.20163,0.0486 0.3055,0.0737 0.23391,0.0574 0.46722,0.11735 0.70038,0.17779 0,0.083 0,0.16597 0,0.25147 -0.94627,-0.0802 -1.84466,-0.27647 -2.76617,-0.50294 0.41145,-0.2529 0.63375,-0.26709 1.10018,-0.15716 z"
      fill="#eff1f7" id="path28" style="stroke-width:0.125735" />
   <path
      d="m 21.96454,17.345832 c 0.15949,0.0622 0.15949,0.0622 0.3222,0.12574 0,0.0415 0,0.083 0,0.12573 -0.11152,0.0285 -0.22303,0.0571 -0.33792,0.0864 -0.47104,0.18664 -0.71037,0.41952 -1.04517,0.7937 -0.083,-0.0415 -0.16597,-0.083 -0.25147,-0.12573 0.74396,-1.00588 0.74396,-1.00588 1.31236,-1.00588 z"
      fill="#a17657" id="path29" style="stroke-width:0.125735" />
   <path
      d="m 13.35957,9.1730716 c 0.24361,0.0393 0.24361,0.0393 0.50294,0.12574 0.0415,0.12448 0.083,0.24895 0.12573,0.3772 -0.29044,0 -0.58089,0 -0.88014,0 0.083,-0.16597 0.16597,-0.33194 0.25147,-0.50294 z"
      fill="#71513a" id="path30" style="stroke-width:0.125735" />
   <path
      d="m 18.38896,9.1730716 c 0.24361,0.0393 0.24361,0.0393 0.50294,0.12574 0.0415,0.12448 0.083,0.24895 0.12573,0.3772 -0.24895,0 -0.49791,0 -0.75441,0 0.0415,-0.16597 0.083,-0.33194 0.12574,-0.50294 z"
      fill="#6f503a" id="path31" style="stroke-width:0.125735" />
   <path
      d="m 17.00588,5.0238316 c -0.28291,0.20432 -0.28291,0.20432 -0.62868,0.3772 -0.29076,-0.10216 -0.29076,-0.10216 -0.50293,-0.25147 0,-0.0415 0,-0.083 0,-0.12573 0.70725,-0.14145 0.70725,-0.14145 1.13161,0 z"
      fill="#eff1f6" id="path32" style="stroke-width:0.125735" />
</svg>
